:SAMPLES-PER-SECOND 30
:FULLY-SPECIFIED
:DEGREES
777
root  -19.6607 36.6984 -22.7907 -177.514 67.535 -173.744
RightUpLeg  -23.7249 -6.70362 16.599
RightLeg  25.6896 0.65302 -0.111137
RightFoot  -1.31478 1.15367 -15.2259
RightToes  -8.3237e-009 0 -3.6325e-017
Spine  18.715 -6.20778 -15.4391
Spine1  -3.76477 -7.11343 -5.0486
HEad  -29.4489 -5.90316 1.37797
LeftShoulder1  -0.475026 4.66978 -34.5812
LeftArm  15.7386 -11.7164 -49.3608
LeftForeArm  33.7544 -41.5573 -7.71429
LeftHand  -0.00186684 3.05179 -0.751158
RightShoulder  -0.880032 -6.13481 26.8614
RightArm  25.9451 -27.2331 39.1021
RightForeArm  15.6119 36.0937 7.24919
RightHand  -0.0409769 3.86821 -0.837662
LeftUpLeg  3.89381 5.97344 8.33172
LeftLeg  49.4892 -5.13678 -6.08426
LeftFoot  -18.7267 -0.884868 -15.6387
LeftToes  -1.18267e-011 3.61711e-011 9.57411e-011
778
root  -18.5313 36.1228 -23.8806 -178.592 67.8585 -172.88
RightUpLeg  -24.2952 -0.708058 15.611
RightLeg  35.7832 -5.677 -4.55208
RightFoot  -6.55414 0.61489 -15.507
RightToes  -8.3237e-009 0 -3.6325e-017
Spine  18.3098 -6.05677 -11.7381
Spine1  -3.38499 -6.05865 -5.0754
HEad  -26.8056 -8.14879 -0.734477
LeftShoulder1  -0.445815 4.61202 -34.0261
LeftArm  17.4132 -11.3671 -52.5864
LeftForeArm  34.9022 -40.0198 -7.176
LeftHand  -0.0187602 3.60091 -0.0602037
RightShoulder  -0.833041 -5.94503 27.5081
RightArm  25.3019 -23.4944 38.0296
RightForeArm  14.4419 37.0392 7.58726
RightHand  0.0575233 4.8841 0.360107
LeftUpLeg  2.44984 5.72169 9.76413
LeftLeg  59.1124 -6.53069 -11.0661
LeftFoot  -9.30271 0.357394 -18.0757
LeftToes  -1.18267e-011 3.61711e-011 9.57411e-011
779
root  -17.6378 35.6346 -24.8798 -177.505 67.8062 -169.149
RightUpLeg  -22.7505 -0.0777596 16.4092
RightLeg  41.7262 -6.46082 -6.41945
RightFoot  -10.1831 0.0879295 -15.1569
RightToes  -8.3237e-009 0 -3.6325e-017
Spine  19.1318 -5.83998 -8.24166
Spine1  -1.8711 -5.26895 -3.38681
HEad  -26.8887 -9.54023 -0.942361
LeftShoulder1  -0.354374 4.41026 -32.9848
LeftArm  16.0657 -10.6967 -54.4494
LeftForeArm  36.9548 -39.9178 -7.02304
LeftHand  -0.024016 3.63212 0.153751
RightShoulder  -0.87435 -5.98804 28.6057
RightArm  25.0937 -16.5392 37.9387
RightForeArm  13.793 36.4558 7.46245
RightHand  0.0558565 4.40966 0.363404
LeftUpLeg  -1.00929 2.83528 11.0392
LeftLeg  69.3615 -5.29883 -14.5885
LeftFoot  3.07148 2.071 -16.5681
LeftToes  -1.18267e-011 3.61711e-011 9.57411e-011
780
root  -16.7388 35.4265 -25.7551 -175.828 65.7501 -165.773
RightUpLeg  -20.799 -2.57465 17.2198
RightLeg  44.4496 -6.55008 -7.16066
RightFoot  -13.7349 -0.394897 -14.3878
RightToes  -8.3237e-009 0 -3.6325e-017
Spine  18.5935 -5.92294 -6.52236
Spine1  1.86207 -5.48753 1.12168
HEad  -27.7831 -10.6955 -0.385321
LeftShoulder1  -0.348251 4.39248 -33.0184
LeftArm  15.4415 -10.9262 -53.488
LeftForeArm  35.1877 -39.4626 -6.99844
LeftHand  -0.0444398 3.11529 1.51002
RightShoulder  -0.830287 -5.88476 28.267
RightArm  21.0972 -9.94143 40.4729
RightForeArm  15.9567 35.6281 7.09623
RightHand  0.00278785 3.51915 -0.205967
LeftUpLeg  -6.1021 -2.10929 12.0948
LeftLeg  77.1948 -3.79707 -17.7811
LeftFoot  6.74918 2.10984 -13.3367
LeftToes  -1.18267e-011 3.61711e-011 9.57411e-011
781
root  -15.7483 35.5606 -26.5195 -174.291 65.4449 -164.078
RightUpLeg  -18.5727 -3.52476 17.321
RightLeg  44.5209 -6.285 -6.91369
RightFoot  -15.931 -0.651301 -13.494
RightToes  -8.3237e-009 0 -3.6325e-017
Spine  16.85 -4.74724 -5.26998
Spine1  3.71697 -4.63697 3.92664
HEad  -26.1294 -13.0481 0.664399
LeftShoulder1  -0.262596 4.18999 -32.171
LeftArm  14.2015 -10.1524 -51.7039
LeftForeArm  32.4481 -37.8352 -6.70697
LeftHand  -0.0429757 3.53584 1.55765
RightShoulder  -0.858036 -5.94265 28.5866
RightArm  14.3924 -5.66245 42.7405
RightForeArm  19.0073 36.3116 7.10404
RightHand  -0.0195305 3.64033 -0.525381
LeftUpLeg  -11.9803 -4.72556 13.1262
LeftLeg  81.2118 -2.46373 -17.7631
LeftFoot  3.30406 1.38814 -10.9308
LeftToes  -1.18267e-011 3.61711e-011 9.57411e-011
782
root  -14.7791 35.9168 -27.2216 -173.305 67.3427 -163.706
RightUpLeg  -16.0279 -2.13395 16.6837
RightLeg  43.1705 -5.90215 -6.22746
RightFoot  -17.0028 -0.735665 -12.494
RightToes  -8.3237e-009 0 -3.6325e-017
Spine  15.5233 -2.73601 -4.12595
Spine1  3.8004 -2.69542 4.75063
HEad  -25.1506 -14.931 3.06108
LeftShoulder1  -0.303869 4.31635 -31.2721
LeftArm  11.7583 -8.94214 -48.8058
LeftForeArm  29.6895 -34.8356 -6.06632
LeftHand  -0.0454276 3.43458 1.63073
RightShoulder  -0.887683 -5.99669 29.0217
RightArm  9.16494 -2.8145 44.9262
RightForeArm  18.5021 38.522 7.76513
RightHand  -0.124005 3.78784 -1.77612
LeftUpLeg  -17.0753 -4.16613 13.8627
LeftLeg  80.4027 -2.09031 -13.6321
LeftFoot  0.75675 0.92728 -8.82651
LeftToes  -1.18267e-011 3.61711e-011 9.57411e-011
